# xmcd
#
# Track frame offsets: 
#        150
#        16032
#        42677
#        55997
#        72710
#        90277
#        108960
#        123400
#        149627
#        165040
#        184927
#        197287
#
# Disc length: 2851 seconds
#
# Revision: 2
# Processed by: cddbd v1.5.2PL0 Copyright (c) Steve Scherf et al.
# Submitted via: ExactAudioCopy v0.95b4
#
DISCID=9f0b210c
DTITLE=Sam Lay Blues Band - Rush Hour Blues
DYEAR=2000
DGENRE=Blues
TTITLE0=Baby How Long
TTITLE1=Secong Man
TTITLE2=I'll Be the Judge of That
TTITLE3=I Like Women
TTITLE4=Blow Wind Blow
TTITLE5=I Got Two Women
TTITLE6=Somebody Gotta Do It
TTITLE7=Mama and Papa Hopkins
TTITLE8=Rush Hour Blues
TTITLE9=I'm Gonna Shoot Her
TTITLE10=Pure Grain Alcohol
TTITLE11=Midnight Drag
EXTD=
EXTT0=
EXTT1=
EXTT2=
EXTT3=
EXTT4=
EXTT5=
EXTT6=
EXTT7=
EXTT8=
EXTT9=
EXTT10=
EXTT11=
PLAYORDER=
